<svg xmlns="http://www.w3.org/2000/svg" width="64" height="64" viewBox="0 0 64 64" role="img" aria-label="Bookmark Organizer">
  <defs>
    <linearGradient id="g" x1="10" y1="6" x2="54" y2="58" gradientUnits="userSpaceOnUse">
      <stop stop-color="#A855F7"/>
      <stop offset="1" stop-color="#EC4899"/>
    </linearGradient>
    <filter id="s" x="-20%" y="-20%" width="140%" height="140%">
      <feDropShadow dx="0" dy="2" stdDeviation="2" flood-color="#000" flood-opacity=".25"/>
    </filter>
  </defs>

  <rect x="6" y="6" width="52" height="52" rx="14" fill="url(#g)"/>

  <!-- bookmark -->
  <path
    d="M24 18c0-2.2 1.8-4 4-4h8c2.2 0 4 1.8 4 4v30.2c0 1.1-1.3 1.7-2.2 1l-5.8-4.6-5.8 4.6c-.9.7-2.2.1-2.2-1V18z"
    fill="#fff"
    filter="url(#s)"
  />

  <!-- small sparkle -->
  <path d="M46 23l1.3 3.2L50.5 27l-3.2 1.3L46 31.5l-1.3-3.2L41.5 27l3.2-.8L46 23z" fill="#fff" opacity=".9"/>
</svg>
